<?xml version="1.0" encoding="utf-8"?>
<!-- Generator: Adobe Illustrator 21.1.0, SVG Export Plug-In . SVG Version: 6.00 Build 0)  -->
<svg version="1.1" id="Camada_1" xmlns="http://www.w3.org/2000/svg" xmlns:xlink="http://www.w3.org/1999/xlink" x="0px" y="0px"
	 viewBox="0 0 32 32" style="enable-background:new 0 0 32 32;" xml:space="preserve">
<style type="text/css">
	.st0{fill:#efefef;}
</style>
<g>
	<g>
		<g>
			<path class="st0" d="M22.9,16.3c0,1.7-0.6,3.4-1.8,4.7c-1.2,1.3-3,2.1-4.7,2c-1.8,0-3.5-0.9-4.7-2.1c-1.2-1.2-1.9-2.9-2-4.7
				c-0.1-1.7,0.6-3.5,1.9-4.8c1.2-1.3,3-2,4.8-2c1.8,0,3.6,0.8,4.7,2.1C22.3,12.9,22.9,14.6,22.9,16.3z M22.8,16.3
				c0-1.7-0.8-3.3-2-4.4c-1.2-1.1-2.8-1.7-4.4-1.7c-1.6,0-3.2,0.6-4.4,1.8c-1.2,1.1-1.9,2.7-1.9,4.4c-0.1,1.6,0.6,3.3,1.8,4.5
				c1.2,1.2,2.9,1.8,4.5,1.7c1.6,0,3.2-0.7,4.4-1.8C22,19.7,22.8,18,22.8,16.3z"/>
		</g>
	</g>
	<g>
		<g>
			<path class="st0" d="M19.6,15.2c0,1.1-0.4,2.1-1.1,2.9c-0.7,0.8-1.8,1.3-2.9,1.3c-2.2-0.1-4.1-2-4.1-4.2c0-1.1,0.4-2.2,1.1-3
				c0.8-0.8,1.9-1.3,3-1.2c1.1,0,2.2,0.5,2.9,1.3C19.2,13.1,19.6,14.1,19.6,15.2z M19.5,15.2c0-1-0.5-2.1-1.2-2.7
				c-0.8-0.7-1.7-1.1-2.7-1.1c-1,0-2,0.4-2.7,1.1c-0.7,0.7-1.2,1.7-1.2,2.7c0,1,0.4,2.1,1.1,2.8c0.7,0.7,1.8,1.1,2.8,1.1
				c1,0,2-0.4,2.7-1.1C19,17.3,19.5,16.2,19.5,15.2z"/>
		</g>
	</g>
	<polygon class="st0" points="9,16.4 0.9,17.4 9.1,17.8 	"/>
	<polygon class="st0" points="23.3,16.4 31.4,17.4 23.2,17.8 	"/>
	<polygon class="st0" points="16.9,9.1 15.8,1 15.4,9.2 	"/>
	<polygon class="st0" points="13.5,9.3 11.9,5.2 12.7,9.5 	"/>
	<polygon class="st0" points="20.2,9.9 22,5.9 19.5,9.5 	"/>
	<polygon class="st0" points="23.5,14.9 27.7,13.6 23.3,14.1 	"/>
	<polygon class="st0" points="22.9,20.2 27,21.7 23.2,19.5 	"/>
	<polygon class="st0" points="18.8,23.5 20.7,27.4 19.5,23.2 	"/>
	<polygon class="st0" points="9,13.8 4.7,13.7 9,14.6 	"/>
	<polygon class="st0" points="9.1,19.8 5.3,21.9 9.4,20.5 	"/>
	<polygon class="st0" points="13.3,23.3 11.5,27.3 13.9,23.6 	"/>
	<polygon class="st0" points="16.9,23.4 15.8,31.5 15.4,23.3 	"/>
	<polygon class="st0" points="22.8,12.7 28.2,6.6 21.8,11.7 	"/>
	<polygon class="st0" points="11.9,22 5.1,26.5 11,20.8 	"/>
	<polygon class="st0" points="21,22.3 27.7,27.1 21.9,21.2 	"/>
	<polygon class="st0" points="10.1,12.3 4.9,6 11.1,11.3 	"/>
</g>
</svg>
