<?xml version="1.0" encoding="utf-8"?>
<!-- Generator: Adobe Illustrator 21.1.0, SVG Export Plug-In . SVG Version: 6.00 Build 0)  -->
<svg version="1.1" id="Camada_1" xmlns="http://www.w3.org/2000/svg" xmlns:xlink="http://www.w3.org/1999/xlink" x="0px" y="0px"
	 viewBox="0 0 1366 768" style="enable-background:new 0 0 1366 768;" xml:space="preserve">
<style type="text/css">
	.st0{opacity:0.3;}
	.st1{fill:#D39D07;}
	.st2{opacity:0.49;}
	.st3{fill:#336F70;}
	.st4{opacity:0.31;}
	.st5{font-family:'CopperplateGothic-Bold';}
	.st6{font-size:104.7428px;}
	.st7{letter-spacing:4;}
	.st8{font-size:226.7578px;}
	.st9{letter-spacing:9;}
</style>
<g class="st0">
	<g>
		<g>
			<path class="st1" d="M306.4,371.6c0,11.6-2.1,23.3-6.1,34.3c-0.5,1.4-1.1,2.7-1.6,4.1c-0.6,1.4-1.2,2.7-1.8,4
				c-0.6,1.3-1.3,2.6-2,4c-0.7,1.3-1.5,2.6-2.2,3.9c-3,5.1-6.6,9.9-10.6,14.4c-8.1,8.9-18.1,16.1-29.2,20.9
				c-5.6,2.4-11.4,4.2-17.4,5.3c-6,1.2-12,1.6-18.1,1.5c-6-0.2-12-0.9-17.9-2.3c-5.8-1.4-11.5-3.4-16.9-5.9
				c-5.4-2.5-10.6-5.5-15.4-9c-4.8-3.4-9.3-7.3-13.4-11.5c-8.2-8.4-14.9-18.3-19.6-29.2c-0.6-1.4-1.2-2.7-1.7-4.1
				c-0.5-1.4-1-2.8-1.5-4.2c-0.4-1.4-0.9-2.8-1.3-4.2c-0.4-1.4-0.8-2.9-1.1-4.3c-1.3-5.8-2.1-11.7-2.3-17.6
				c-0.4-11.9,1.5-24,5.8-35.3c4.3-11.3,11.1-21.6,19.5-30.4c8.5-8.7,18.7-15.8,29.9-20.5c11.2-4.8,23.5-7.2,35.7-7.2
				c12.2,0.1,24.4,2.6,35.6,7.5c1.4,0.6,2.7,1.3,4.1,2c1.4,0.7,2.7,1.4,4,2.2c1.3,0.8,2.6,1.6,3.9,2.4c1.3,0.8,2.5,1.7,3.7,2.6
				c4.9,3.5,9.4,7.6,13.4,12.1c4,4.5,7.6,9.3,10.6,14.4c0.7,1.3,1.5,2.6,2.2,3.9c0.7,1.3,1.4,2.6,2,4c0.6,1.4,1.3,2.7,1.8,4
				c0.5,1.4,1.1,2.7,1.6,4.1C304.4,348.3,306.4,359.9,306.4,371.6z M305.5,371.6c0-11.5-2.6-23-7.4-33.4
				c-4.8-10.4-11.9-19.6-20.2-27c-4.2-3.8-8.7-7-13.4-10c-1.2-0.7-2.4-1.4-3.6-2.1c-1.2-0.6-2.4-1.3-3.7-1.9
				c-1.3-0.6-2.5-1.2-3.7-1.8c-1.3-0.5-2.5-1.1-3.8-1.6c-10.3-4-21.2-6-32.2-5.9c-11,0.1-21.9,2.2-32,6.3
				c-10.2,4.1-19.6,10.2-27.5,17.8c-15.8,15.4-25.7,37-26.5,59.5c-0.4,11.3,1.4,22.7,5.7,33.3c4.2,10.6,10.6,20.3,18.8,28.3
				c4.1,4,8.6,7.5,13.4,10.5c4.8,3,9.9,5.5,15.2,7.4c10.6,3.9,21.8,5.6,32.9,5.3c22.2-0.6,43.8-9.2,60.5-24.2
				c8.3-7.5,15.4-16.7,20.2-27.1C303,394.6,305.5,383.1,305.5,371.6z"/>
		</g>
	</g>
	<g>
		<g>
			<path class="st1" d="M260.6,355.9c0,7.2-1.3,14.4-3.8,21.2c-2.5,6.8-6.3,13.2-11.2,18.7c-1.3,1.3-2.6,2.6-4,3.9
				c-1.4,1.2-2.9,2.4-4.4,3.5c-1.6,1-3.1,2.1-4.7,3c-1.7,0.8-3.3,1.7-5,2.5c-6.9,3-14.4,4.4-21.9,4.2c-7.5-0.2-14.8-2-21.5-5.1
				c-6.7-3.1-12.7-7.4-17.8-12.6c-5.1-5.2-9.2-11.3-12.1-18c-2.9-6.7-4.6-13.9-4.8-21.3c-0.2-7.3,0.9-14.8,3.6-21.8
				c2.7-7,6.8-13.4,12.1-18.8c5.2-5.4,11.5-9.7,18.5-12.7c6.9-3,14.5-4.4,22-4.4c7.5,0.1,15.1,1.6,22,4.7c1.7,0.8,3.4,1.7,5,2.5
				c1.6,1,3.1,2,4.7,3.1c1.5,1.1,2.9,2.3,4.3,3.5c1.3,1.3,2.6,2.6,3.9,3.9c5,5.5,8.7,12,11.2,18.8
				C259.4,341.5,260.6,348.7,260.6,355.9z M260.1,355.9c0-7.1-1.6-14.2-4.6-20.6c-3-6.4-7.3-12.1-12.5-16.7
				c-10.3-9.2-23.8-14.5-37.3-14.3c-13.5,0-27,5.4-36.8,14.9c-9.8,9.5-15.8,22.8-16.4,36.8c-0.2,7,0.9,14,3.5,20.6
				c2.6,6.5,6.6,12.5,11.6,17.5c1.3,1.2,2.6,2.3,4,3.5c1.4,1,2.8,2.1,4.3,3c1.5,0.8,3,1.7,4.6,2.5c1.6,0.7,3.2,1.4,4.8,2
				c6.5,2.4,13.5,3.4,20.3,3.3c13.7-0.4,27.1-5.6,37.4-14.9c5.1-4.6,9.5-10.3,12.4-16.7C258.5,370.2,260.1,363.1,260.1,355.9z"/>
		</g>
	</g>
	<polygon class="st1" points="116.5,372.2 5.9,386.5 117.8,391.7 	"/>
	<polygon class="st1" points="311.8,372.2 422.4,386.5 310.5,391.7 	"/>
	<polygon class="st1" points="223.9,272.6 209.6,162 204.4,273.9 	"/>
	<polygon class="st1" points="177.7,275.3 155.6,219.7 167.7,278.5 	"/>
	<polygon class="st1" points="268.9,283.6 293.7,229.2 259.7,278.7 	"/>
	<polygon class="st1" points="314.3,351.7 371.6,334.7 312,341.5 	"/>
	<polygon class="st1" points="306.4,423.7 362.1,445.2 310.7,414.1 	"/>
	<polygon class="st1" points="250.1,469.4 276.1,523.1 259.8,465.4 	"/>
	<polygon class="st1" points="117,337.3 57.3,335.9 116.1,347.7 	"/>
	<polygon class="st1" points="117.8,418.6 65.6,447.7 122.3,428.1 	"/>
	<polygon class="st1" points="174.7,466.4 150.7,521.1 184,471.2 	"/>
	<polygon class="st1" points="223.9,467.9 209.6,578.5 204.4,466.6 	"/>
	<polygon class="st1" points="304.5,321.5 379.2,238.6 290.8,307.5 	"/>
	<polygon class="st1" points="156.2,448.5 62.8,509.6 144.5,432.8 	"/>
	<polygon class="st1" points="280.5,453.3 371.3,518.1 292.8,438.1 	"/>
	<polygon class="st1" points="131.6,315.9 60.3,230.1 145.9,302.5 	"/>
</g>
<g class="st2">
	
		<rect x="196.1" y="417.8" transform="matrix(0.7071 0.7071 -0.7071 0.7071 358.5061 -18.6074)" class="st3" width="11.2" height="11.2"/>
	
		<rect x="236.9" y="417.8" transform="matrix(0.7071 0.7071 -0.7071 0.7071 370.4473 -47.4359)" class="st3" width="11.2" height="11.2"/>
	
		<rect x="277.6" y="417.8" transform="matrix(0.7071 0.7071 -0.7071 0.7071 382.3884 -76.2645)" class="st3" width="11.2" height="11.2"/>
	
		<rect x="318.4" y="417.8" transform="matrix(0.7071 0.7071 -0.7071 0.7071 394.3296 -105.093)" class="st3" width="11.2" height="11.2"/>
	
		<rect x="359.2" y="417.8" transform="matrix(0.7071 0.7071 -0.7071 0.7071 406.2708 -133.9216)" class="st3" width="11.2" height="11.2"/>
	
		<rect x="400" y="417.8" transform="matrix(0.7071 0.7071 -0.7071 0.7071 418.212 -162.7502)" class="st3" width="11.2" height="11.2"/>
	
		<rect x="440.7" y="417.8" transform="matrix(0.7071 0.7071 -0.7071 0.7071 430.1532 -191.5787)" class="st3" width="11.2" height="11.2"/>
	
		<rect x="481.5" y="417.8" transform="matrix(0.7071 0.7071 -0.7071 0.7071 442.0943 -220.4073)" class="st3" width="11.2" height="11.2"/>
	
		<rect x="522.3" y="417.8" transform="matrix(0.7071 0.7071 -0.7071 0.7071 454.0355 -249.2358)" class="st3" width="11.2" height="11.2"/>
	
		<rect x="563" y="417.8" transform="matrix(0.7071 0.7071 -0.7071 0.7071 465.9767 -278.0644)" class="st3" width="11.2" height="11.2"/>
	
		<rect x="603.8" y="417.8" transform="matrix(0.7071 0.7071 -0.7071 0.7071 477.9179 -306.893)" class="st3" width="11.2" height="11.2"/>
	
		<rect x="644.6" y="417.8" transform="matrix(0.7071 0.7071 -0.7071 0.7071 489.8591 -335.7215)" class="st3" width="11.2" height="11.2"/>
	
		<rect x="685.3" y="417.8" transform="matrix(0.7071 0.7071 -0.7071 0.7071 501.8002 -364.5501)" class="st3" width="11.2" height="11.2"/>
	
		<rect x="726.1" y="417.8" transform="matrix(0.7071 0.7071 -0.7071 0.7071 513.7415 -393.3787)" class="st3" width="11.2" height="11.2"/>
	
		<rect x="766.9" y="417.8" transform="matrix(0.7071 0.7071 -0.7071 0.7071 525.6826 -422.2072)" class="st3" width="11.2" height="11.2"/>
	
		<rect x="807.7" y="417.8" transform="matrix(0.7071 0.7071 -0.7071 0.7071 537.6238 -451.0358)" class="st3" width="11.2" height="11.2"/>
</g>
<g class="st2">
	
		<rect x="196.1" y="449.6" transform="matrix(0.7071 0.7071 -0.7071 0.7071 380.9283 -9.3198)" class="st3" width="11.2" height="11.2"/>
	
		<rect x="236.9" y="449.6" transform="matrix(0.7071 0.7071 -0.7071 0.7071 392.8695 -38.1483)" class="st3" width="11.2" height="11.2"/>
	
		<rect x="277.6" y="449.6" transform="matrix(0.7071 0.7071 -0.7071 0.7071 404.8106 -66.9769)" class="st3" width="11.2" height="11.2"/>
	
		<rect x="318.4" y="449.6" transform="matrix(0.7071 0.7071 -0.7071 0.7071 416.7518 -95.8055)" class="st3" width="11.2" height="11.2"/>
	
		<rect x="359.2" y="449.6" transform="matrix(0.7071 0.7071 -0.7071 0.7071 428.693 -124.634)" class="st3" width="11.2" height="11.2"/>
	
		<rect x="400" y="449.6" transform="matrix(0.7071 0.7071 -0.7071 0.7071 440.6342 -153.4626)" class="st3" width="11.2" height="11.2"/>
	
		<rect x="440.7" y="449.6" transform="matrix(0.7071 0.7071 -0.7071 0.7071 452.5754 -182.2911)" class="st3" width="11.2" height="11.2"/>
	
		<rect x="481.5" y="449.6" transform="matrix(0.7071 0.7071 -0.7071 0.7071 464.5165 -211.1197)" class="st3" width="11.2" height="11.2"/>
	
		<rect x="522.3" y="449.6" transform="matrix(0.7071 0.7071 -0.7071 0.7071 476.4577 -239.9483)" class="st3" width="11.2" height="11.2"/>
	
		<rect x="563" y="449.6" transform="matrix(0.7071 0.7071 -0.7071 0.7071 488.3989 -268.7768)" class="st3" width="11.2" height="11.2"/>
	
		<rect x="603.8" y="449.6" transform="matrix(0.7071 0.7071 -0.7071 0.7071 500.3401 -297.6054)" class="st3" width="11.2" height="11.2"/>
	
		<rect x="644.6" y="449.6" transform="matrix(0.7071 0.7071 -0.7071 0.7071 512.2813 -326.4339)" class="st3" width="11.2" height="11.2"/>
	
		<rect x="685.3" y="449.6" transform="matrix(0.7071 0.7071 -0.7071 0.7071 524.2225 -355.2625)" class="st3" width="11.2" height="11.2"/>
	
		<rect x="726.1" y="449.6" transform="matrix(0.7071 0.7071 -0.7071 0.7071 536.1636 -384.0911)" class="st3" width="11.2" height="11.2"/>
	
		<rect x="766.9" y="449.6" transform="matrix(0.7071 0.7071 -0.7071 0.7071 548.1048 -412.9196)" class="st3" width="11.2" height="11.2"/>
	
		<rect x="807.7" y="449.6" transform="matrix(0.7071 0.7071 -0.7071 0.7071 560.046 -441.7482)" class="st3" width="11.2" height="11.2"/>
</g>
<g class="st2">
	
		<rect x="196.1" y="481.3" transform="matrix(0.7071 0.7071 -0.7071 0.7071 403.3505 -3.218200e-02)" class="st3" width="11.2" height="11.2"/>
	
		<rect x="236.9" y="481.3" transform="matrix(0.7071 0.7071 -0.7071 0.7071 415.2917 -28.8607)" class="st3" width="11.2" height="11.2"/>
	
		<rect x="277.6" y="481.3" transform="matrix(0.7071 0.7071 -0.7071 0.7071 427.2328 -57.6893)" class="st3" width="11.2" height="11.2"/>
	
		<rect x="318.4" y="481.3" transform="matrix(0.7071 0.7071 -0.7071 0.7071 439.174 -86.5179)" class="st3" width="11.2" height="11.2"/>
	
		<rect x="359.2" y="481.3" transform="matrix(0.7071 0.7071 -0.7071 0.7071 451.1152 -115.3464)" class="st3" width="11.2" height="11.2"/>
	
		<rect x="400" y="481.3" transform="matrix(0.7071 0.7071 -0.7071 0.7071 463.0564 -144.175)" class="st3" width="11.2" height="11.2"/>
	
		<rect x="440.7" y="481.3" transform="matrix(0.7071 0.7071 -0.7071 0.7071 474.9976 -173.0036)" class="st3" width="11.2" height="11.2"/>
	
		<rect x="481.5" y="481.3" transform="matrix(0.7071 0.7071 -0.7071 0.7071 486.9388 -201.8321)" class="st3" width="11.2" height="11.2"/>
	
		<rect x="522.3" y="481.3" transform="matrix(0.7071 0.7071 -0.7071 0.7071 498.8799 -230.6607)" class="st3" width="11.2" height="11.2"/>
	
		<rect x="563" y="481.3" transform="matrix(0.7071 0.7071 -0.7071 0.7071 510.8211 -259.4892)" class="st3" width="11.2" height="11.2"/>
	
		<rect x="603.8" y="481.3" transform="matrix(0.7071 0.7071 -0.7071 0.7071 522.7623 -288.3178)" class="st3" width="11.2" height="11.2"/>
	
		<rect x="644.6" y="481.3" transform="matrix(0.7071 0.7071 -0.7071 0.7071 534.7035 -317.1464)" class="st3" width="11.2" height="11.2"/>
	
		<rect x="685.3" y="481.3" transform="matrix(0.7071 0.7071 -0.7071 0.7071 546.6447 -345.9749)" class="st3" width="11.2" height="11.2"/>
	
		<rect x="726.1" y="481.3" transform="matrix(0.7071 0.7071 -0.7071 0.7071 558.5859 -374.8035)" class="st3" width="11.2" height="11.2"/>
	
		<rect x="766.9" y="481.3" transform="matrix(0.7071 0.7071 -0.7071 0.7071 570.527 -403.632)" class="st3" width="11.2" height="11.2"/>
	
		<rect x="807.7" y="481.3" transform="matrix(0.7071 0.7071 -0.7071 0.7071 582.4682 -432.4606)" class="st3" width="11.2" height="11.2"/>
</g>
<g class="st4">
	
		<rect x="196.1" y="513" transform="matrix(0.7071 0.7071 -0.7071 0.7071 425.7727 9.2554)" class="st3" width="11.2" height="11.2"/>
	
		<rect x="236.9" y="513" transform="matrix(0.7071 0.7071 -0.7071 0.7071 437.7139 -19.5732)" class="st3" width="11.2" height="11.2"/>
	
		<rect x="277.6" y="513" transform="matrix(0.7071 0.7071 -0.7071 0.7071 449.6551 -48.4017)" class="st3" width="11.2" height="11.2"/>
	
		<rect x="318.4" y="513" transform="matrix(0.7071 0.7071 -0.7071 0.7071 461.5963 -77.2303)" class="st3" width="11.2" height="11.2"/>
	
		<rect x="359.2" y="513" transform="matrix(0.7071 0.7071 -0.7071 0.7071 473.5374 -106.0588)" class="st3" width="11.2" height="11.2"/>
	
		<rect x="400" y="513" transform="matrix(0.7071 0.7071 -0.7071 0.7071 485.4786 -134.8874)" class="st3" width="11.2" height="11.2"/>
	
		<rect x="440.7" y="513" transform="matrix(0.7071 0.7071 -0.7071 0.7071 497.4198 -163.716)" class="st3" width="11.2" height="11.2"/>
	
		<rect x="481.5" y="513" transform="matrix(0.7071 0.7071 -0.7071 0.7071 509.361 -192.5445)" class="st3" width="11.2" height="11.2"/>
	
		<rect x="522.3" y="513" transform="matrix(0.7071 0.7071 -0.7071 0.7071 521.3022 -221.3731)" class="st3" width="11.2" height="11.2"/>
	
		<rect x="563" y="513" transform="matrix(0.7071 0.7071 -0.7071 0.7071 533.2433 -250.2016)" class="st3" width="11.2" height="11.2"/>
	
		<rect x="603.8" y="513" transform="matrix(0.7071 0.7071 -0.7071 0.7071 545.1845 -279.0302)" class="st3" width="11.2" height="11.2"/>
	
		<rect x="644.6" y="513" transform="matrix(0.7071 0.7071 -0.7071 0.7071 557.1257 -307.8588)" class="st3" width="11.2" height="11.2"/>
	
		<rect x="685.3" y="513" transform="matrix(0.7071 0.7071 -0.7071 0.7071 569.0669 -336.6873)" class="st3" width="11.2" height="11.2"/>
	
		<rect x="726.1" y="513" transform="matrix(0.7071 0.7071 -0.7071 0.7071 581.0081 -365.5159)" class="st3" width="11.2" height="11.2"/>
	
		<rect x="766.9" y="513" transform="matrix(0.7071 0.7071 -0.7071 0.7071 592.9493 -394.3445)" class="st3" width="11.2" height="11.2"/>
	
		<rect x="807.7" y="513" transform="matrix(0.7071 0.7071 -0.7071 0.7071 604.8904 -423.173)" class="st3" width="11.2" height="11.2"/>
</g>
<g>
	<text transform="matrix(1 0 0 1 738.2363 534.3994)" class="st3 st5 st6 st7">solutions</text>
</g>
<text transform="matrix(1 0 0 1 153.7446 439.1543)"><tspan x="0" y="0" class="st1 st5 st8 st9">SUN</tspan><tspan x="573.2" y="0" class="st3 st5 st8 st9">RISE</tspan></text>
</svg>
